<svg width="300" height="300" viewBox="0 0 300 300" xmlns="http://www.w3.org/2000/svg">
  <defs>
    <!-- Card gradients -->
    <linearGradient id="cardBlue" x1="0" y1="0" x2="1" y2="1">
      <stop offset="0%" stop-color="#bbdefb"/>
      <stop offset="100%" stop-color="#1e88e5"/>
    </linearGradient>
    <linearGradient id="cardRed" x1="0" y1="0" x2="1" y2="1">
      <stop offset="0%" stop-color="#ffcdd2"/>
      <stop offset="100%" stop-color="#e53935"/>
    </linearGradient>
    <linearGradient id="cardGreen" x1="0" y1="0" x2="1" y2="1">
      <stop offset="0%" stop-color="#c8e6c9"/>
      <stop offset="100%" stop-color="#43a047"/>
    </linearGradient>

    <!-- Shadow filter -->
    <filter id="shadow" x="-20%" y="-20%" width="140%" height="140%">
      <feDropShadow dx="0" dy="3" stdDeviation="3" flood-color="#000000" flood-opacity="0.4"/>
    </filter>
  </defs>

  <!-- Fanned cards -->
  <g filter="url(#shadow)">
    <rect x="80" y="60" width="100" height="140" rx="10" ry="10" fill="url(#cardRed)"
          transform="rotate(-15 80 60)" stroke="#4a0000" stroke-width="2"/>
    <rect x="100" y="60" width="100" height="140" rx="10" ry="10" fill="url(#cardBlue)"
          transform="rotate(0 100 60)" stroke="#003c8f" stroke-width="2"/>
    <rect x="120" y="60" width="100" height="140" rx="10" ry="10" fill="url(#cardGreen)"
          transform="rotate(15 120 60)" stroke="#1b5e20" stroke-width="2"/>
  </g>

  <!-- Statistic-style chart on the middle card -->
  <g transform="translate(150,130) scale(0.6)">
    <rect x="-30" y="20" width="10" height="30" fill="#ffffff"/>
    <rect x="-10" y="0" width="10" height="50" fill="#ffffff"/>
    <rect x="10" y="-20" width="10" height="70" fill="#ffffff"/>

    <!-- Axis lines -->
    <line x1="-40" y1="50" x2="40" y2="50" stroke="#ffffff" stroke-width="3"/>
    <line x1="-40" y1="50" x2="-40" y2="-30" stroke="#ffffff" stroke-width="3"/>

    <!-- Optional trend line -->
    <polyline points="-25,40 -5,20 15,0" fill="none" stroke="#ffffff" stroke-width="2"/>
  </g>
</svg>
